<?xml version="1.0" encoding="utf-8"?>
<!-- Generator: Adobe Illustrator 24.2.3, SVG Export Plug-In . SVG Version: 6.00 Build 0)  -->
<svg version="1.1" xmlns="http://www.w3.org/2000/svg" xmlns:xlink="http://www.w3.org/1999/xlink" x="0px" y="0px"
	 viewBox="0 0 1080 1080" style="enable-background:new 0 0 1080 1080;" xml:space="preserve">
<style type="text/css">
	.st0{display:none;}
	.st1{display:inline;}
	.st2{fill:#FFFFFF;}
	.st3{fill:#ED1C24;}
	.st4{fill:#00AEEF;}
	.st5{fill:#7B1315;}
	.st6{fill:#C12126;}
	.st7{fill:#9A1C1F;}
	.st8{fill:#407072;}
	.st9{fill:#69A9AC;}
	.st10{fill:#508C8F;}
</style>
<g id="Layer_1" class="st0">
</g>
<g id="Layer_2">
	<path class="st7" d="M1031.19,539.99c0,142.2-115.27,257.47-257.47,257.47c-2.36,0-4.71-0.04-7.05-0.1
		c-0.41,0.06-0.83,0.1-1.26,0.1H57.15c-7.19,0-11-8.36-6.21-13.62l201.19-209.15c1.58-1.74,3.83-2.74,6.21-2.74l259.7-1.58
		l32.68-0.2h182.32c3.37,0,6.64-0.4,9.78-1.17c7.49-1.82,14.17-5.66,19.44-10.93c7.48-7.49,12.1-17.81,12.1-29.23
		c0-22.81-18.51-41.33-41.33-41.33H348.05c-4.9,0-7.36-5.95-3.91-9.44l185.39-187.38c5.16-5.22,12.18-8.15,19.49-8.15h224.69
		c2.43,0,4.85,0.04,7.25,0.1C919.82,286.48,1031.19,400.23,1031.19,539.99z"/>
</g>
<g id="Layer_2_copy_4">
</g>
<g id="Layer_2_copy" class="st0">
</g>
<g id="Layer_2_copy_2" class="st0">
</g>
<g id="Layer_2_copy_3" class="st0">
</g>
</svg>
